# xmcd
#
# Track frame offsets:
# 150
# 26637
# 43737
# 64380
# 80780
# 102812
# 120707
# 132450
# 150962
# 169805
# 183275
# 199567
# 229192
# 255612
# 273400
#
# Disc length: 3944 seconds
#
#
# Revision: 13
# Processed by: cddbd v1.5.2PL0 Copyright (c) Steve Scherf et al.
# Submitted via: FreeRIP 2.96 
#
DISCID=ce0f660f
DTITLE=Amigos - Amigos 3
DYEAR=1998
DGENRE=Sertanejo
TTITLE0=Andança
TTITLE1=Toma Juízo
TTITLE2=Te Amo Cada Vez Mais (To love you more)
TTITLE3=Cerveja
TTITLE4=O Homem de Nazareth
TTITLE5=Desculpe Mas Eu Vou Chorar
TTITLE6=Estrada Da Vida
TTITLE7=Majestade, o Sabiá
TTITLE8=Canção Da América
TTITLE9=Eu Só Quero Um Xodó
TTITLE10=Pense em Mim
TTITLE11=De volta pro aconchego/Milla/Mineirinho
TTITLE12=E uma partida de futebol/Beleza rara/La bamba
TTITLE13=Você Vai Ver
TTITLE14=Marcas Do Que Se Foi
EXTD=
EXTT0=Leandro and Leonardo, Zezé Di Camargo and Luciano, Chitãozinho and Xororó
EXTT1=Zezé Di Camargo and Luciano -
EXTT2=Daniel, Luciano, Chitãozinho e Leandro -
EXTT3=Leandro and Leonardo -
EXTT4=Chitãozinho and Xororó -
EXTT5=Fábio Jr. com Leandro and Leonardo -
EXTT6=Leandro and Leonardo, Zezé Di Camargo and Luciano, Chitãozinho and Xororó -
EXTT7=Roberta Miranda com Chitãozinho and Xororó -
EXTT8=Leandro and Leonardo, Zezé Di Camargo and Luciano, Chitãozinho and Xororó, Daniel -
EXTT9=Zezé Di Camargo and Luciano, Daniela Mercury -
EXTT10=Leandro and Leonardo -
EXTT11=Zezé Di Camargo - (De Volta Pro Aconchego), Leonardo - (Milla), Chitãozinho - (Mineirinho)
EXTT12=Luciano - (É Uma Partida de Futebol), Xororó - (Beleza Rara), Leandro - (La Bamba)
EXTT13=Zezé Di Camargo and Luciano -
EXTT14=Leandro and Leonardo, Zezé Di Camargo and Luciano, Chitãozinho and Xororó -
PLAYORDER=
